<svg width="242" height="105" viewBox="0 0 242 105" fill="none" xmlns="http://www.w3.org/2000/svg">
<path d="M238.846 8.29575C238.659 8.03125 238.399 7.82646 238.099 7.70604C237.798 7.58562 237.469 7.55469 237.151 7.61699L207.75 13.3298L207.745 13.3288C207.405 13.3966 207.095 13.5675 206.857 13.8182C206.618 14.0689 206.463 14.3871 206.412 14.7293C206.361 15.0716 206.417 15.4212 206.572 15.7305C206.727 16.0398 206.974 16.2936 207.279 16.4573L207.306 16.4712L216.087 22.1432C216.262 22.2311 216.458 22.2714 216.653 22.2602C216.849 22.249 217.038 22.1867 217.202 22.0795L234.841 10.518C234.895 10.4805 234.954 10.4538 235.018 10.4394C235.081 10.425 235.147 10.4233 235.211 10.4343C235.275 10.4453 235.336 10.4688 235.391 10.5035C235.446 10.5382 235.494 10.5833 235.532 10.6364C235.569 10.6895 235.596 10.7495 235.61 10.8129C235.625 10.8763 235.626 10.9419 235.615 11.006C235.604 11.0701 235.581 11.1314 235.546 11.1864C235.511 11.2414 235.466 11.289 235.413 11.3266L218.634 24.0963C218.478 24.2152 218.356 24.3729 218.28 24.5536C218.205 24.7344 218.178 24.9318 218.202 25.1263L220.623 35.3019C220.625 35.3164 220.627 35.3296 220.629 35.3435C220.74 36.0212 221.222 36.5684 221.892 36.7147L221.961 36.7266C222.302 36.787 222.653 36.7436 222.969 36.6019C223.285 36.4602 223.55 36.2267 223.732 35.9319L238.915 10.1243C239.082 9.84539 239.164 9.52427 239.151 9.19977C239.139 8.87526 239.033 8.56126 238.846 8.29575V8.29575Z" fill="#EBEBEB"/>
<path d="M139.336 84.2254L139.518 84.6911L139.336 84.2254ZM6.66104 104.923C6.93168 104.978 7.19553 104.803 7.25035 104.532C7.30518 104.262 7.13022 103.998 6.85958 103.943L6.66104 104.923ZM18.2258 103.248C17.9748 103.363 17.8644 103.66 17.9793 103.911C18.0943 104.162 18.391 104.272 18.6421 104.157L18.2258 103.248ZM26.8018 95.3572C26.9254 95.1102 26.8254 94.8099 26.5784 94.6863C26.3315 94.5627 26.0311 94.6627 25.9075 94.9096L26.8018 95.3572ZM30.2605 83.8891C30.1651 84.1483 30.2979 84.4357 30.5571 84.531C30.8163 84.6264 31.1036 84.4936 31.199 84.2344L30.2605 83.8891ZM36.2604 73.6314C36.4186 73.405 36.3634 73.0933 36.137 72.9351C35.9107 72.7769 35.599 72.8322 35.4408 73.0585L36.2604 73.6314ZM45.0777 65.9258C44.8123 66.0021 44.6589 66.2791 44.7352 66.5445C44.8114 66.8099 45.0884 66.9632 45.3538 66.887L45.0777 65.9258ZM56.8973 66.4075C57.1722 66.4338 57.4163 66.2323 57.4426 65.9574C57.4689 65.6825 57.2674 65.4383 56.9925 65.412L56.8973 66.4075ZM68.4885 67.6548C68.2237 67.5764 67.9455 67.7276 67.8672 67.9924C67.7889 68.2572 67.9401 68.5354 68.2049 68.6137L68.4885 67.6548ZM78.9823 72.7676C79.2326 72.8843 79.5301 72.776 79.6468 72.5257C79.7635 72.2755 79.6552 71.978 79.4049 71.8613L78.9823 72.7676ZM89.7815 77.1885C89.5384 77.0575 89.2351 77.1483 89.1041 77.3914C88.9731 77.6345 89.0639 77.9377 89.307 78.0688L89.7815 77.1885ZM99.685 83.3962C99.9358 83.5118 100.233 83.4023 100.348 83.1515C100.464 82.9008 100.355 82.6037 100.104 82.4881L99.685 83.3962ZM110.945 86.38C110.677 86.3154 110.407 86.4807 110.342 86.7492C110.277 87.0177 110.443 87.2877 110.711 87.3523L110.945 86.38ZM122.386 88.5232C122.662 88.5123 122.877 88.2798 122.866 88.0039C122.855 87.728 122.623 87.5131 122.347 87.524L122.386 88.5232ZM133.666 85.6268C133.401 85.7032 133.248 85.9803 133.324 86.2456C133.401 86.511 133.678 86.6642 133.943 86.5878L133.666 85.6268ZM144.694 82.5278C144.946 82.4148 145.058 82.119 144.945 81.867C144.833 81.615 144.537 81.5023 144.285 81.6153L144.694 82.5278ZM153.996 76.4618C153.763 76.6101 153.694 76.9192 153.843 77.1521C153.991 77.385 154.3 77.4536 154.533 77.3052L153.996 76.4618ZM163.275 70.3178C163.469 70.1214 163.467 69.8048 163.271 69.6107C163.075 69.4166 162.758 69.4185 162.564 69.6149L163.275 70.3178ZM169.457 61.0545C169.3 61.2812 169.356 61.5928 169.582 61.7504C169.809 61.9081 170.121 61.8522 170.278 61.6255L169.457 61.0545ZM176.707 52.615C176.877 52.3981 176.84 52.0837 176.623 51.9129C176.406 51.742 176.092 51.7794 175.921 51.9964L176.707 52.615ZM183.516 43.8303C183.312 44.0159 183.297 44.3322 183.482 44.5366C183.668 44.7409 183.984 44.7561 184.189 44.5704L183.516 43.8303ZM192.887 37.768C193.115 37.6125 193.174 37.3015 193.019 37.0733C192.864 36.845 192.552 36.786 192.324 36.9414L192.887 37.768ZM201.822 31.1566C201.58 31.2896 201.491 31.5936 201.624 31.8356C201.757 32.0776 202.061 32.166 202.303 32.0331L201.822 31.1566ZM0.835206 103.288C2.93687 104.022 4.87316 104.561 6.66104 104.923L6.85958 103.943C5.12271 103.591 3.23046 103.065 1.16479 102.344L0.835206 103.288ZM18.6421 104.157C22.4276 102.424 24.8891 99.1791 26.8018 95.3572L25.9075 94.9096C24.0405 98.6403 21.7129 101.652 18.2258 103.248L18.6421 104.157ZM31.199 84.2344C32.6075 80.4061 34.1204 76.6934 36.2604 73.6314L35.4408 73.0585C33.2201 76.2358 31.6705 80.0566 30.2605 83.8891L31.199 84.2344ZM45.3538 66.887C47.0421 66.4019 48.9502 66.1347 51.1217 66.1347V65.1347C48.8676 65.1347 46.8656 65.4121 45.0777 65.9258L45.3538 66.887ZM51.1217 66.1347C53.1162 66.1347 55.0388 66.2298 56.8973 66.4075L56.9925 65.412C55.1025 65.2313 53.1481 65.1347 51.1217 65.1347V66.1347ZM68.2049 68.6137C72.0192 69.7418 75.577 71.1798 78.9823 72.7676L79.4049 71.8613C75.9676 70.2586 72.3623 68.8005 68.4885 67.6548L68.2049 68.6137ZM89.307 78.0688C92.7734 79.9374 96.1941 81.7862 99.685 83.3962L100.104 82.4881C96.6463 80.8936 93.2538 79.0603 89.7815 77.1885L89.307 78.0688ZM110.711 87.3523C114.372 88.2326 118.225 88.6871 122.386 88.5232L122.347 87.524C118.285 87.684 114.524 87.2408 110.945 86.38L110.711 87.3523ZM133.943 86.5878C135.742 86.0697 137.598 85.4407 139.518 84.6911L139.154 83.7596C137.262 84.4987 135.434 85.1176 133.666 85.6268L133.943 86.5878ZM139.518 84.6911C141.36 83.9717 143.081 83.2508 144.694 82.5278L144.285 81.6153C142.688 82.3312 140.982 83.0458 139.154 83.7596L139.518 84.6911ZM154.533 77.3052C158.13 75.0141 160.931 72.6904 163.275 70.3178L162.564 69.6149C160.272 71.9339 157.53 74.2105 153.996 76.4618L154.533 77.3052ZM170.278 61.6255C172.314 58.6996 174.262 55.7195 176.707 52.615L175.921 51.9964C173.452 55.1318 171.473 58.1565 169.457 61.0545L170.278 61.6255ZM184.189 44.5704C186.611 42.3696 189.456 40.1047 192.887 37.768L192.324 36.9414C188.857 39.3029 185.975 41.5965 183.516 43.8303L184.189 44.5704ZM202.303 32.0331C203.855 31.1804 205.493 30.3184 207.225 29.4466L206.775 28.5534C205.034 29.4303 203.385 30.298 201.822 31.1566L202.303 32.0331Z" fill="#EBEBEB"/>
</svg>
